<svg id="visual" viewBox="0 0 900 900" width="900" height="900" xmlns="http://www.w3.org/2000/svg" xmlns:xlink="http://www.w3.org/1999/xlink" version="1.1"><rect x="0" y="0" width="900" height="900" fill="#27374D"></rect><path d="M0 451L21.5 462.3C43 473.7 86 496.3 128.8 507.7C171.7 519 214.3 519 257.2 512.7C300 506.3 343 493.7 385.8 494.2C428.7 494.7 471.3 508.3 514.2 494.8C557 481.3 600 440.7 642.8 434.7C685.7 428.7 728.3 457.3 771.2 471C814 484.7 857 483.3 878.5 482.7L900 482L900 901L878.5 901C857 901 814 901 771.2 901C728.3 901 685.7 901 642.8 901C600 901 557 901 514.2 901C471.3 901 428.7 901 385.8 901C343 901 300 901 257.2 901C214.3 901 171.7 901 128.8 901C86 901 43 901 21.5 901L0 901Z" fill="#526d82"></path><path d="M0 425L21.5 442.3C43 459.7 86 494.3 128.8 495.5C171.7 496.7 214.3 464.3 257.2 455.8C300 447.3 343 462.7 385.8 475.3C428.7 488 471.3 498 514.2 494.5C557 491 600 474 642.8 478.8C685.7 483.7 728.3 510.3 771.2 522.5C814 534.7 857 532.3 878.5 531.2L900 530L900 901L878.5 901C857 901 814 901 771.2 901C728.3 901 685.7 901 642.8 901C600 901 557 901 514.2 901C471.3 901 428.7 901 385.8 901C343 901 300 901 257.2 901C214.3 901 171.7 901 128.8 901C86 901 43 901 21.5 901L0 901Z" fill="#5e778b"></path><path d="M0 582L21.5 575.3C43 568.7 86 555.3 128.8 547.8C171.7 540.3 214.3 538.7 257.2 534C300 529.3 343 521.7 385.8 522.5C428.7 523.3 471.3 532.7 514.2 534.8C557 537 600 532 642.8 537C685.7 542 728.3 557 771.2 566.2C814 575.3 857 578.7 878.5 580.3L900 582L900 901L878.5 901C857 901 814 901 771.2 901C728.3 901 685.7 901 642.8 901C600 901 557 901 514.2 901C471.3 901 428.7 901 385.8 901C343 901 300 901 257.2 901C214.3 901 171.7 901 128.8 901C86 901 43 901 21.5 901L0 901Z" fill="#6a8295"></path><path d="M0 524L21.5 527.5C43 531 86 538 128.8 544.7C171.7 551.3 214.3 557.7 257.2 557.8C300 558 343 552 385.8 550.3C428.7 548.7 471.3 551.3 514.2 556C557 560.7 600 567.3 642.8 569C685.7 570.7 728.3 567.3 771.2 568.3C814 569.3 857 574.7 878.5 577.3L900 580L900 901L878.5 901C857 901 814 901 771.2 901C728.3 901 685.7 901 642.8 901C600 901 557 901 514.2 901C471.3 901 428.7 901 385.8 901C343 901 300 901 257.2 901C214.3 901 171.7 901 128.8 901C86 901 43 901 21.5 901L0 901Z" fill="#778d9e"></path><path d="M0 629L21.5 616.8C43 604.7 86 580.3 128.8 583C171.7 585.7 214.3 615.3 257.2 617C300 618.7 343 592.3 385.8 589.2C428.7 586 471.3 606 514.2 613C557 620 600 614 642.8 602.2C685.7 590.3 728.3 572.7 771.2 572C814 571.3 857 587.7 878.5 595.8L900 604L900 901L878.5 901C857 901 814 901 771.2 901C728.3 901 685.7 901 642.8 901C600 901 557 901 514.2 901C471.3 901 428.7 901 385.8 901C343 901 300 901 257.2 901C214.3 901 171.7 901 128.8 901C86 901 43 901 21.5 901L0 901Z" fill="#8397a7"></path><path d="M0 649L21.5 644C43 639 86 629 128.8 628.8C171.7 628.7 214.3 638.3 257.2 640.8C300 643.3 343 638.7 385.8 632.2C428.7 625.7 471.3 617.3 514.2 622.7C557 628 600 647 642.8 650.3C685.7 653.7 728.3 641.3 771.2 631C814 620.7 857 612.3 878.5 608.2L900 604L900 901L878.5 901C857 901 814 901 771.2 901C728.3 901 685.7 901 642.8 901C600 901 557 901 514.2 901C471.3 901 428.7 901 385.8 901C343 901 300 901 257.2 901C214.3 901 171.7 901 128.8 901C86 901 43 901 21.5 901L0 901Z" fill="#90a2b1"></path><path d="M0 693L21.5 685.3C43 677.7 86 662.3 128.8 664.3C171.7 666.3 214.3 685.7 257.2 689.3C300 693 343 681 385.8 668.5C428.7 656 471.3 643 514.2 637.7C557 632.3 600 634.7 642.8 647.2C685.7 659.7 728.3 682.3 771.2 690.7C814 699 857 693 878.5 690L900 687L900 901L878.5 901C857 901 814 901 771.2 901C728.3 901 685.7 901 642.8 901C600 901 557 901 514.2 901C471.3 901 428.7 901 385.8 901C343 901 300 901 257.2 901C214.3 901 171.7 901 128.8 901C86 901 43 901 21.5 901L0 901Z" fill="#9cadbb"></path><path d="M0 698L21.5 704.7C43 711.3 86 724.7 128.8 728C171.7 731.3 214.3 724.7 257.2 719.5C300 714.3 343 710.7 385.8 714.3C428.7 718 471.3 729 514.2 722.7C557 716.3 600 692.7 642.8 686.7C685.7 680.7 728.3 692.3 771.2 698.7C814 705 857 706 878.5 706.5L900 707L900 901L878.5 901C857 901 814 901 771.2 901C728.3 901 685.7 901 642.8 901C600 901 557 901 514.2 901C471.3 901 428.7 901 385.8 901C343 901 300 901 257.2 901C214.3 901 171.7 901 128.8 901C86 901 43 901 21.5 901L0 901Z" fill="#a9b9c5"></path><path d="M0 717L21.5 717.7C43 718.3 86 719.7 128.8 722.3C171.7 725 214.3 729 257.2 735C300 741 343 749 385.8 750.2C428.7 751.3 471.3 745.7 514.2 743.8C557 742 600 744 642.8 741.5C685.7 739 728.3 732 771.2 731.2C814 730.3 857 735.7 878.5 738.3L900 741L900 901L878.5 901C857 901 814 901 771.2 901C728.3 901 685.7 901 642.8 901C600 901 557 901 514.2 901C471.3 901 428.7 901 385.8 901C343 901 300 901 257.2 901C214.3 901 171.7 901 128.8 901C86 901 43 901 21.5 901L0 901Z" fill="#b6c4cf"></path><path d="M0 806L21.5 801.2C43 796.3 86 786.7 128.8 784.5C171.7 782.3 214.3 787.7 257.2 790.2C300 792.7 343 792.3 385.8 794C428.7 795.7 471.3 799.3 514.2 799.7C557 800 600 797 642.8 788.5C685.7 780 728.3 766 771.2 761.5C814 757 857 762 878.5 764.5L900 767L900 901L878.5 901C857 901 814 901 771.2 901C728.3 901 685.7 901 642.8 901C600 901 557 901 514.2 901C471.3 901 428.7 901 385.8 901C343 901 300 901 257.2 901C214.3 901 171.7 901 128.8 901C86 901 43 901 21.5 901L0 901Z" fill="#c3cfd9"></path><path d="M0 822L21.5 824.2C43 826.3 86 830.7 128.8 826.8C171.7 823 214.3 811 257.2 811.2C300 811.3 343 823.7 385.8 828.8C428.7 834 471.3 832 514.2 828C557 824 600 818 642.8 813.2C685.7 808.3 728.3 804.7 771.2 805C814 805.3 857 809.7 878.5 811.8L900 814L900 901L878.5 901C857 901 814 901 771.2 901C728.3 901 685.7 901 642.8 901C600 901 557 901 514.2 901C471.3 901 428.7 901 385.8 901C343 901 300 901 257.2 901C214.3 901 171.7 901 128.8 901C86 901 43 901 21.5 901L0 901Z" fill="#d0dae3"></path><path d="M0 848L21.5 849.3C43 850.7 86 853.3 128.8 856.5C171.7 859.7 214.3 863.3 257.2 865C300 866.7 343 866.3 385.8 861.7C428.7 857 471.3 848 514.2 846.8C557 845.7 600 852.3 642.8 856.7C685.7 861 728.3 863 771.2 859.5C814 856 857 847 878.5 842.5L900 838L900 901L878.5 901C857 901 814 901 771.2 901C728.3 901 685.7 901 642.8 901C600 901 557 901 514.2 901C471.3 901 428.7 901 385.8 901C343 901 300 901 257.2 901C214.3 901 171.7 901 128.8 901C86 901 43 901 21.5 901L0 901Z" fill="#dde6ed"></path></svg>