<svg id="visual" viewBox="0 0 1080 2000" width="1080" height="2000" xmlns="http://www.w3.org/2000/svg" xmlns:xlink="http://www.w3.org/1999/xlink" version="1.1"><rect x="0" y="0" width="1080" height="2000" fill="#BBE1FA"></rect><path d="M0 1003L25.7 1028.3C51.3 1053.7 102.7 1104.3 154.2 1129.5C205.7 1154.7 257.3 1154.3 308.8 1140.3C360.3 1126.3 411.7 1098.7 463 1099.7C514.3 1100.7 565.7 1130.3 617 1100C668.3 1069.7 719.7 979.3 771.2 966.2C822.7 953 874.3 1017 925.8 1047.5C977.3 1078 1028.7 1075 1054.3 1073.5L1080 1072L1080 2001L1054.3 2001C1028.7 2001 977.3 2001 925.8 2001C874.3 2001 822.7 2001 771.2 2001C719.7 2001 668.3 2001 617 2001C565.7 2001 514.3 2001 463 2001C411.7 2001 360.3 2001 308.8 2001C257.3 2001 205.7 2001 154.2 2001C102.7 2001 51.3 2001 25.7 2001L0 2001Z" fill="#3282b8"></path><path d="M0 946L25.7 984.3C51.3 1022.7 102.7 1099.3 154.2 1101.8C205.7 1104.3 257.3 1032.7 308.8 1014C360.3 995.3 411.7 1029.7 463 1058C514.3 1086.3 565.7 1108.7 617 1100.8C668.3 1093 719.7 1055 771.2 1065.5C822.7 1076 874.3 1135 925.8 1162C977.3 1189 1028.7 1184 1054.3 1181.5L1080 1179L1080 2001L1054.3 2001C1028.7 2001 977.3 2001 925.8 2001C874.3 2001 822.7 2001 771.2 2001C719.7 2001 668.3 2001 617 2001C565.7 2001 514.3 2001 463 2001C411.7 2001 360.3 2001 308.8 2001C257.3 2001 205.7 2001 154.2 2001C102.7 2001 51.3 2001 25.7 2001L0 2001Z" fill="#2e79aa"></path><path d="M0 1294L25.7 1279.3C51.3 1264.7 102.7 1235.3 154.2 1218.8C205.7 1202.3 257.3 1198.7 308.8 1188.3C360.3 1178 411.7 1161 463 1162.7C514.3 1164.3 565.7 1184.7 617 1189.5C668.3 1194.3 719.7 1183.7 771.2 1194.8C822.7 1206 874.3 1239 925.8 1259.2C977.3 1279.3 1028.7 1286.7 1054.3 1290.3L1080 1294L1080 2001L1054.3 2001C1028.7 2001 977.3 2001 925.8 2001C874.3 2001 822.7 2001 771.2 2001C719.7 2001 668.3 2001 617 2001C565.7 2001 514.3 2001 463 2001C411.7 2001 360.3 2001 308.8 2001C257.3 2001 205.7 2001 154.2 2001C102.7 2001 51.3 2001 25.7 2001L0 2001Z" fill="#2b719c"></path><path d="M0 1166L25.7 1173.8C51.3 1181.7 102.7 1197.3 154.2 1212C205.7 1226.7 257.3 1240.3 308.8 1240.7C360.3 1241 411.7 1228 463 1224.5C514.3 1221 565.7 1227 617 1237.3C668.3 1247.7 719.7 1262.3 771.2 1266C822.7 1269.7 874.3 1262.3 925.8 1264.5C977.3 1266.7 1028.7 1278.3 1054.3 1284.2L1080 1290L1080 2001L1054.3 2001C1028.7 2001 977.3 2001 925.8 2001C874.3 2001 822.7 2001 771.2 2001C719.7 2001 668.3 2001 617 2001C565.7 2001 514.3 2001 463 2001C411.7 2001 360.3 2001 308.8 2001C257.3 2001 205.7 2001 154.2 2001C102.7 2001 51.3 2001 25.7 2001L0 2001Z" fill="#28688e"></path><path d="M0 1399L25.7 1371.8C51.3 1344.7 102.7 1290.3 154.2 1296.2C205.7 1302 257.3 1368 308.8 1371.8C360.3 1375.7 411.7 1317.3 463 1310.3C514.3 1303.3 565.7 1347.7 617 1363.2C668.3 1378.7 719.7 1365.3 771.2 1339C822.7 1312.7 874.3 1273.3 925.8 1271.7C977.3 1270 1028.7 1306 1054.3 1324L1080 1342L1080 2001L1054.3 2001C1028.7 2001 977.3 2001 925.8 2001C874.3 2001 822.7 2001 771.2 2001C719.7 2001 668.3 2001 617 2001C565.7 2001 514.3 2001 463 2001C411.7 2001 360.3 2001 308.8 2001C257.3 2001 205.7 2001 154.2 2001C102.7 2001 51.3 2001 25.7 2001L0 2001Z" fill="#266081"></path><path d="M0 1442L25.7 1431.2C51.3 1420.3 102.7 1398.7 154.2 1398.5C205.7 1398.3 257.3 1419.7 308.8 1425C360.3 1430.3 411.7 1419.7 463 1405.3C514.3 1391 565.7 1373 617 1385.2C668.3 1397.3 719.7 1439.7 771.2 1446.8C822.7 1454 874.3 1426 925.8 1402.8C977.3 1379.7 1028.7 1361.3 1054.3 1352.2L1080 1343L1080 2001L1054.3 2001C1028.7 2001 977.3 2001 925.8 2001C874.3 2001 822.7 2001 771.2 2001C719.7 2001 668.3 2001 617 2001C565.7 2001 514.3 2001 463 2001C411.7 2001 360.3 2001 308.8 2001C257.3 2001 205.7 2001 154.2 2001C102.7 2001 51.3 2001 25.7 2001L0 2001Z" fill="#255773"></path><path d="M0 1540L25.7 1523C51.3 1506 102.7 1472 154.2 1476.5C205.7 1481 257.3 1524 308.8 1532.3C360.3 1540.7 411.7 1514.3 463 1486.8C514.3 1459.3 565.7 1430.7 617 1419C668.3 1407.3 719.7 1412.7 771.2 1440.3C822.7 1468 874.3 1518 925.8 1536.3C977.3 1554.7 1028.7 1541.3 1054.3 1534.7L1080 1528L1080 2001L1054.3 2001C1028.7 2001 977.3 2001 925.8 2001C874.3 2001 822.7 2001 771.2 2001C719.7 2001 668.3 2001 617 2001C565.7 2001 514.3 2001 463 2001C411.7 2001 360.3 2001 308.8 2001C257.3 2001 205.7 2001 154.2 2001C102.7 2001 51.3 2001 25.7 2001L0 2001Z" fill="#234f67"></path><path d="M0 1552L25.7 1566.8C51.3 1581.7 102.7 1611.3 154.2 1618.7C205.7 1626 257.3 1611 308.8 1599.7C360.3 1588.3 411.7 1580.7 463 1589C514.3 1597.3 565.7 1621.7 617 1607.5C668.3 1593.3 719.7 1540.7 771.2 1527.3C822.7 1514 874.3 1540 925.8 1554.2C977.3 1568.3 1028.7 1570.7 1054.3 1571.8L1080 1573L1080 2001L1054.3 2001C1028.7 2001 977.3 2001 925.8 2001C874.3 2001 822.7 2001 771.2 2001C719.7 2001 668.3 2001 617 2001C565.7 2001 514.3 2001 463 2001C411.7 2001 360.3 2001 308.8 2001C257.3 2001 205.7 2001 154.2 2001C102.7 2001 51.3 2001 25.7 2001L0 2001Z" fill="#22465a"></path><path d="M0 1595L25.7 1596.3C51.3 1597.7 102.7 1600.3 154.2 1606.2C205.7 1612 257.3 1621 308.8 1634.5C360.3 1648 411.7 1666 463 1668.7C514.3 1671.3 565.7 1658.7 617 1654.5C668.3 1650.3 719.7 1654.7 771.2 1648.8C822.7 1643 874.3 1627 925.8 1625.2C977.3 1623.3 1028.7 1635.7 1054.3 1641.8L1080 1648L1080 2001L1054.3 2001C1028.7 2001 977.3 2001 925.8 2001C874.3 2001 822.7 2001 771.2 2001C719.7 2001 668.3 2001 617 2001C565.7 2001 514.3 2001 463 2001C411.7 2001 360.3 2001 308.8 2001C257.3 2001 205.7 2001 154.2 2001C102.7 2001 51.3 2001 25.7 2001L0 2001Z" fill="#213e4e"></path><path d="M0 1792L25.7 1781.2C51.3 1770.3 102.7 1748.7 154.2 1743.8C205.7 1739 257.3 1751 308.8 1756.5C360.3 1762 411.7 1761 463 1764.8C514.3 1768.7 565.7 1777.3 617 1778.2C668.3 1779 719.7 1772 771.2 1753.2C822.7 1734.3 874.3 1703.7 925.8 1693.7C977.3 1683.7 1028.7 1694.3 1054.3 1699.7L1080 1705L1080 2001L1054.3 2001C1028.7 2001 977.3 2001 925.8 2001C874.3 2001 822.7 2001 771.2 2001C719.7 2001 668.3 2001 617 2001C565.7 2001 514.3 2001 463 2001C411.7 2001 360.3 2001 308.8 2001C257.3 2001 205.7 2001 154.2 2001C102.7 2001 51.3 2001 25.7 2001L0 2001Z" fill="#1f3642"></path><path d="M0 1829L25.7 1833.7C51.3 1838.3 102.7 1847.7 154.2 1839C205.7 1830.3 257.3 1803.7 308.8 1804C360.3 1804.3 411.7 1831.7 463 1843C514.3 1854.3 565.7 1849.7 617 1840.7C668.3 1831.7 719.7 1818.3 771.2 1807.7C822.7 1797 874.3 1789 925.8 1789.8C977.3 1790.7 1028.7 1800.3 1054.3 1805.2L1080 1810L1080 2001L1054.3 2001C1028.7 2001 977.3 2001 925.8 2001C874.3 2001 822.7 2001 771.2 2001C719.7 2001 668.3 2001 617 2001C565.7 2001 514.3 2001 463 2001C411.7 2001 360.3 2001 308.8 2001C257.3 2001 205.7 2001 154.2 2001C102.7 2001 51.3 2001 25.7 2001L0 2001Z" fill="#1d2e37"></path><path d="M0 1886L25.7 1888.8C51.3 1891.7 102.7 1897.3 154.2 1904.3C205.7 1911.3 257.3 1919.7 308.8 1923.5C360.3 1927.3 411.7 1926.7 463 1916.2C514.3 1905.7 565.7 1885.3 617 1882.5C668.3 1879.7 719.7 1894.3 771.2 1904.2C822.7 1914 874.3 1919 925.8 1911.7C977.3 1904.3 1028.7 1884.7 1054.3 1874.8L1080 1865L1080 2001L1054.3 2001C1028.7 2001 977.3 2001 925.8 2001C874.3 2001 822.7 2001 771.2 2001C719.7 2001 668.3 2001 617 2001C565.7 2001 514.3 2001 463 2001C411.7 2001 360.3 2001 308.8 2001C257.3 2001 205.7 2001 154.2 2001C102.7 2001 51.3 2001 25.7 2001L0 2001Z" fill="#1b262c"></path></svg>