<svg id="visual" viewBox="0 0 900 600" width="900" height="600" xmlns="http://www.w3.org/2000/svg" xmlns:xlink="http://www.w3.org/1999/xlink" version="1.1"><rect x="0" y="0" width="900" height="600" fill="#001220"></rect><path d="M0 225L21.5 224.8C43 224.7 86 224.3 128.8 240.2C171.7 256 214.3 288 257.2 286C300 284 343 248 385.8 230.5C428.7 213 471.3 214 514.2 223.8C557 233.7 600 252.3 642.8 253.8C685.7 255.3 728.3 239.7 771.2 252.3C814 265 857 306 878.5 326.5L900 347L900 601L878.5 601C857 601 814 601 771.2 601C728.3 601 685.7 601 642.8 601C600 601 557 601 514.2 601C471.3 601 428.7 601 385.8 601C343 601 300 601 257.2 601C214.3 601 171.7 601 128.8 601C86 601 43 601 21.5 601L0 601Z" fill="#fa7268"></path><path d="M0 396L21.5 395.3C43 394.7 86 393.3 128.8 386.3C171.7 379.3 214.3 366.7 257.2 363C300 359.3 343 364.7 385.8 356.5C428.7 348.3 471.3 326.7 514.2 313.7C557 300.7 600 296.3 642.8 313.2C685.7 330 728.3 368 771.2 372C814 376 857 346 878.5 331L900 316L900 601L878.5 601C857 601 814 601 771.2 601C728.3 601 685.7 601 642.8 601C600 601 557 601 514.2 601C471.3 601 428.7 601 385.8 601C343 601 300 601 257.2 601C214.3 601 171.7 601 128.8 601C86 601 43 601 21.5 601L0 601Z" fill="#ef5f67"></path><path d="M0 355L21.5 354.8C43 354.7 86 354.3 128.8 359C171.7 363.7 214.3 373.3 257.2 386C300 398.7 343 414.3 385.8 408.2C428.7 402 471.3 374 514.2 375.5C557 377 600 408 642.8 411.2C685.7 414.3 728.3 389.7 771.2 383.8C814 378 857 391 878.5 397.5L900 404L900 601L878.5 601C857 601 814 601 771.2 601C728.3 601 685.7 601 642.8 601C600 601 557 601 514.2 601C471.3 601 428.7 601 385.8 601C343 601 300 601 257.2 601C214.3 601 171.7 601 128.8 601C86 601 43 601 21.5 601L0 601Z" fill="#e34c67"></path><path d="M0 451L21.5 444.5C43 438 86 425 128.8 424.8C171.7 424.7 214.3 437.3 257.2 451C300 464.7 343 479.3 385.8 480.5C428.7 481.7 471.3 469.3 514.2 460C557 450.7 600 444.3 642.8 443.5C685.7 442.7 728.3 447.3 771.2 455.8C814 464.3 857 476.7 878.5 482.8L900 489L900 601L878.5 601C857 601 814 601 771.2 601C728.3 601 685.7 601 642.8 601C600 601 557 601 514.2 601C471.3 601 428.7 601 385.8 601C343 601 300 601 257.2 601C214.3 601 171.7 601 128.8 601C86 601 43 601 21.5 601L0 601Z" fill="#d53867"></path><path d="M0 526L21.5 527.7C43 529.3 86 532.7 128.8 532.8C171.7 533 214.3 530 257.2 526.2C300 522.3 343 517.7 385.8 521.3C428.7 525 471.3 537 514.2 535.2C557 533.3 600 517.7 642.8 514.8C685.7 512 728.3 522 771.2 520.3C814 518.7 857 505.3 878.5 498.7L900 492L900 601L878.5 601C857 601 814 601 771.2 601C728.3 601 685.7 601 642.8 601C600 601 557 601 514.2 601C471.3 601 428.7 601 385.8 601C343 601 300 601 257.2 601C214.3 601 171.7 601 128.8 601C86 601 43 601 21.5 601L0 601Z" fill="#c62368"></path></svg>